<svg width="161" height="69" viewBox="0 0 161 69" fill="none" xmlns="http://www.w3.org/2000/svg">
<path d="M65.6937 6L85.8289 20.8696L161 6V63H12L65.6937 6Z" fill="#222964"/>
<path d="M6.096 51H23.04V47.16H6.096V51ZM6.096 21.24H23.04V17.4H6.096V21.24ZM6.096 34.68H22.08V30.84H6.096V34.68ZM3.84 17.4V51H7.92V17.4H3.84ZM41.7506 28.92L36.4706 36.6L31.1906 28.92H26.8706L34.4066 39.624L26.3906 51H30.7106L36.4706 42.648L42.2306 51H46.5506L38.5346 39.624L46.0706 28.92H41.7506ZM51.0589 44.232L48.0349 46.104C48.4509 46.968 49.0589 47.816 49.8589 48.648C50.6909 49.48 51.6989 50.168 52.8829 50.712C54.0669 51.224 55.3949 51.48 56.8669 51.48C59.1389 51.48 60.9629 50.84 62.3389 49.56C63.7469 48.28 64.4509 46.68 64.4509 44.76C64.4509 43.448 64.1309 42.376 63.4909 41.544C62.8829 40.712 62.0509 40.008 60.9949 39.432C59.9389 38.824 58.7709 38.264 57.4909 37.752C56.7229 37.432 55.9869 37.096 55.2829 36.744C54.5789 36.392 54.0029 35.992 53.5549 35.544C53.1069 35.096 52.8829 34.584 52.8829 34.008C52.8829 33.272 53.1709 32.728 53.7469 32.376C54.3229 32.024 55.0109 31.848 55.8109 31.848C56.9629 31.848 57.9869 32.12 58.8829 32.664C59.8109 33.208 60.5789 33.896 61.1869 34.728L64.2589 32.76C63.8109 31.928 63.1869 31.192 62.3869 30.552C61.5869 29.912 60.6589 29.4 59.6029 29.016C58.5789 28.632 57.4749 28.44 56.2909 28.44C55.1069 28.44 53.9549 28.648 52.8349 29.064C51.7469 29.48 50.8509 30.12 50.1469 30.984C49.4749 31.848 49.1389 32.936 49.1389 34.248C49.1389 35.528 49.4589 36.6 50.0989 37.464C50.7709 38.296 51.5869 38.984 52.5469 39.528C53.5389 40.04 54.5149 40.488 55.4749 40.872C56.3389 41.192 57.1549 41.544 57.9229 41.928C58.6909 42.28 59.3149 42.728 59.7949 43.272C60.3069 43.784 60.5629 44.424 60.5629 45.192C60.5629 46.056 60.2429 46.744 59.6029 47.256C58.9949 47.736 58.1469 47.976 57.0589 47.976C56.1629 47.976 55.3309 47.816 54.5629 47.496C53.8269 47.144 53.1709 46.68 52.5949 46.104C52.0189 45.528 51.5069 44.904 51.0589 44.232ZM73.1063 61.56V28.92H69.2663V61.56H73.1063ZM91.5863 39.96C91.5863 37.56 91.0903 35.512 90.0983 33.816C89.1063 32.088 87.7783 30.76 86.1143 29.832C84.4823 28.904 82.6583 28.44 80.6423 28.44C78.8183 28.44 77.2023 28.904 75.7943 29.832C74.4183 30.76 73.3303 32.088 72.5303 33.816C71.7623 35.512 71.3783 37.56 71.3783 39.96C71.3783 42.328 71.7623 44.376 72.5303 46.104C73.3303 47.832 74.4183 49.16 75.7943 50.088C77.2023 51.016 78.8183 51.48 80.6423 51.48C82.6583 51.48 84.4823 51.016 86.1143 50.088C87.7783 49.16 89.1063 47.832 90.0983 46.104C91.0903 44.376 91.5863 42.328 91.5863 39.96ZM87.6983 39.96C87.6983 41.656 87.3463 43.096 86.6423 44.28C85.9703 45.464 85.0583 46.36 83.9063 46.968C82.7863 47.576 81.5383 47.88 80.1623 47.88C79.0423 47.88 77.9383 47.576 76.8503 46.968C75.7623 46.36 74.8663 45.464 74.1623 44.28C73.4583 43.096 73.1063 41.656 73.1063 39.96C73.1063 38.264 73.4583 36.824 74.1623 35.64C74.8663 34.456 75.7623 33.56 76.8503 32.952C77.9383 32.344 79.0423 32.04 80.1623 32.04C81.5383 32.04 82.7863 32.344 83.9063 32.952C85.0583 33.56 85.9703 34.456 86.6423 35.64C87.3463 36.824 87.6983 38.264 87.6983 39.96ZM105.425 51.48C107.793 51.48 109.841 51.016 111.569 50.088C113.329 49.128 114.785 47.72 115.937 45.864L112.817 43.896C112.017 45.24 111.041 46.248 109.889 46.92C108.737 47.56 107.409 47.88 105.905 47.88C104.401 47.88 103.121 47.56 102.065 46.92C101.009 46.28 100.209 45.352 99.6653 44.136C99.1213 42.92 98.8493 41.448 98.8493 39.72C98.8813 38.024 99.1693 36.6 99.7133 35.448C100.289 34.264 101.089 33.368 102.113 32.76C103.169 32.12 104.433 31.8 105.905 31.8C107.153 31.8 108.241 32.072 109.169 32.616C110.097 33.16 110.817 33.912 111.329 34.872C111.873 35.832 112.145 36.968 112.145 38.28C112.145 38.504 112.097 38.792 112.001 39.144C111.905 39.464 111.809 39.704 111.713 39.864L113.249 37.656H97.4093V40.92H116.273C116.273 40.856 116.273 40.712 116.273 40.488C116.305 40.232 116.321 39.992 116.321 39.768C116.321 37.432 115.905 35.416 115.073 33.72C114.241 32.024 113.041 30.728 111.473 29.832C109.937 28.904 108.081 28.44 105.905 28.44C103.729 28.44 101.809 28.92 100.145 29.88C98.5133 30.84 97.2333 32.184 96.3053 33.912C95.4093 35.64 94.9613 37.656 94.9613 39.96C94.9613 42.232 95.3933 44.232 96.2573 45.96C97.1533 47.688 98.3853 49.048 99.9533 50.04C101.553 51 103.377 51.48 105.425 51.48ZM125.424 28.92H121.584V51H125.424V28.92ZM132.096 33.144L134.208 29.976C133.632 29.368 132.992 28.968 132.288 28.776C131.616 28.552 130.88 28.44 130.08 28.44C129.056 28.44 128.048 28.84 127.056 29.64C126.064 30.44 125.248 31.528 124.608 32.904C124 34.248 123.696 35.8 123.696 37.56H125.424C125.424 36.504 125.52 35.56 125.712 34.728C125.936 33.896 126.32 33.24 126.864 32.76C127.408 32.28 128.16 32.04 129.12 32.04C129.76 32.04 130.288 32.136 130.704 32.328C131.12 32.488 131.584 32.76 132.096 33.144ZM139.766 44.184C139.766 43.384 139.958 42.696 140.342 42.12C140.726 41.544 141.302 41.096 142.07 40.776C142.87 40.456 143.894 40.296 145.142 40.296C146.486 40.296 147.75 40.472 148.934 40.824C150.118 41.144 151.27 41.688 152.39 42.456V40.2C152.166 39.912 151.734 39.544 151.094 39.096C150.454 38.616 149.59 38.2 148.502 37.848C147.446 37.464 146.118 37.272 144.518 37.272C141.798 37.272 139.67 37.928 138.134 39.24C136.63 40.52 135.878 42.232 135.878 44.376C135.878 45.88 136.23 47.16 136.934 48.216C137.638 49.272 138.566 50.088 139.718 50.664C140.902 51.208 142.166 51.48 143.51 51.48C144.726 51.48 145.942 51.256 147.158 50.808C148.406 50.36 149.446 49.672 150.278 48.744C151.142 47.816 151.574 46.648 151.574 45.24L150.806 42.36C150.806 43.512 150.518 44.536 149.942 45.432C149.398 46.296 148.646 46.968 147.686 47.448C146.758 47.928 145.702 48.168 144.518 48.168C143.59 48.168 142.758 48.024 142.022 47.736C141.318 47.416 140.758 46.952 140.342 46.344C139.958 45.736 139.766 45.016 139.766 44.184ZM139.19 34.008C139.542 33.752 140.022 33.448 140.63 33.096C141.238 32.744 141.974 32.44 142.838 32.184C143.734 31.928 144.726 31.8 145.814 31.8C146.486 31.8 147.126 31.864 147.734 31.992C148.342 32.12 148.87 32.328 149.318 32.616C149.798 32.904 150.166 33.304 150.422 33.816C150.678 34.296 150.806 34.92 150.806 35.688V51H154.646V35.16C154.646 33.72 154.278 32.504 153.542 31.512C152.838 30.52 151.83 29.768 150.518 29.256C149.238 28.712 147.734 28.44 146.006 28.44C143.958 28.44 142.198 28.744 140.726 29.352C139.286 29.96 138.15 30.568 137.318 31.176L139.19 34.008Z" fill="white"/>
</svg>
