<svg width="71" height="29" viewBox="0 0 71 29" fill="none" xmlns="http://www.w3.org/2000/svg">
<path d="M35 2.5L42.5 8.5L70.5 2.5V25.5H15L35 2.5Z" fill="#222964"/>
<path d="M2.54 21H9.6V19.4H2.54V21ZM2.54 8.6H9.6V7H2.54V8.6ZM2.54 14.2H9.2V12.6H2.54V14.2ZM1.6 7V21H3.3V7H1.6ZM17.3961 11.8L15.1961 15L12.9961 11.8H11.1961L14.3361 16.26L10.9961 21H12.7961L15.1961 17.52L17.5961 21H19.3961L16.0561 16.26L19.1961 11.8H17.3961ZM21.2745 18.18L20.0145 18.96C20.1879 19.32 20.4412 19.6733 20.7745 20.02C21.1212 20.3667 21.5412 20.6533 22.0345 20.88C22.5279 21.0933 23.0812 21.2 23.6945 21.2C24.6412 21.2 25.4012 20.9333 25.9745 20.4C26.5612 19.8667 26.8545 19.2 26.8545 18.4C26.8545 17.8533 26.7212 17.4067 26.4545 17.06C26.2012 16.7133 25.8545 16.42 25.4145 16.18C24.9745 15.9267 24.4879 15.6933 23.9545 15.48C23.6345 15.3467 23.3279 15.2067 23.0345 15.06C22.7412 14.9133 22.5012 14.7467 22.3145 14.56C22.1279 14.3733 22.0345 14.16 22.0345 13.92C22.0345 13.6133 22.1545 13.3867 22.3945 13.24C22.6345 13.0933 22.9212 13.02 23.2545 13.02C23.7345 13.02 24.1612 13.1333 24.5345 13.36C24.9212 13.5867 25.2412 13.8733 25.4945 14.22L26.7745 13.4C26.5879 13.0533 26.3279 12.7467 25.9945 12.48C25.6612 12.2133 25.2745 12 24.8345 11.84C24.4079 11.68 23.9479 11.6 23.4545 11.6C22.9612 11.6 22.4812 11.6867 22.0145 11.86C21.5612 12.0333 21.1879 12.3 20.8945 12.66C20.6145 13.02 20.4745 13.4733 20.4745 14.02C20.4745 14.5533 20.6079 15 20.8745 15.36C21.1545 15.7067 21.4945 15.9933 21.8945 16.22C22.3079 16.4333 22.7145 16.62 23.1145 16.78C23.4745 16.9133 23.8145 17.06 24.1345 17.22C24.4545 17.3667 24.7145 17.5533 24.9145 17.78C25.1279 17.9933 25.2345 18.26 25.2345 18.58C25.2345 18.94 25.1012 19.2267 24.8345 19.44C24.5812 19.64 24.2279 19.74 23.7745 19.74C23.4012 19.74 23.0545 19.6733 22.7345 19.54C22.4279 19.3933 22.1545 19.2 21.9145 18.96C21.6745 18.72 21.4612 18.46 21.2745 18.18ZM30.4609 25.4V11.8H28.8609V25.4H30.4609ZM38.1609 16.4C38.1609 15.4 37.9543 14.5467 37.5409 13.84C37.1276 13.12 36.5743 12.5667 35.8809 12.18C35.2009 11.7933 34.4409 11.6 33.6009 11.6C32.8409 11.6 32.1676 11.7933 31.5809 12.18C31.0076 12.5667 30.5543 13.12 30.2209 13.84C29.9009 14.5467 29.7409 15.4 29.7409 16.4C29.7409 17.3867 29.9009 18.24 30.2209 18.96C30.5543 19.68 31.0076 20.2333 31.5809 20.62C32.1676 21.0067 32.8409 21.2 33.6009 21.2C34.4409 21.2 35.2009 21.0067 35.8809 20.62C36.5743 20.2333 37.1276 19.68 37.5409 18.96C37.9543 18.24 38.1609 17.3867 38.1609 16.4ZM36.5409 16.4C36.5409 17.1067 36.3943 17.7067 36.1009 18.2C35.8209 18.6933 35.4409 19.0667 34.9609 19.32C34.4943 19.5733 33.9743 19.7 33.4009 19.7C32.9343 19.7 32.4743 19.5733 32.0209 19.32C31.5676 19.0667 31.1943 18.6933 30.9009 18.2C30.6076 17.7067 30.4609 17.1067 30.4609 16.4C30.4609 15.6933 30.6076 15.0933 30.9009 14.6C31.1943 14.1067 31.5676 13.7333 32.0209 13.48C32.4743 13.2267 32.9343 13.1 33.4009 13.1C33.9743 13.1 34.4943 13.2267 34.9609 13.48C35.4409 13.7333 35.8209 14.1067 36.1009 14.6C36.3943 15.0933 36.5409 15.6933 36.5409 16.4ZM43.9272 21.2C44.9139 21.2 45.7672 21.0067 46.4872 20.62C47.2205 20.22 47.8272 19.6333 48.3072 18.86L47.0072 18.04C46.6739 18.6 46.2672 19.02 45.7872 19.3C45.3072 19.5667 44.7539 19.7 44.1272 19.7C43.5005 19.7 42.9672 19.5667 42.5272 19.3C42.0872 19.0333 41.7539 18.6467 41.5272 18.14C41.3005 17.6333 41.1872 17.02 41.1872 16.3C41.2005 15.5933 41.3205 15 41.5472 14.52C41.7872 14.0267 42.1205 13.6533 42.5472 13.4C42.9872 13.1333 43.5139 13 44.1272 13C44.6472 13 45.1005 13.1133 45.4872 13.34C45.8739 13.5667 46.1739 13.88 46.3872 14.28C46.6139 14.68 46.7272 15.1533 46.7272 15.7C46.7272 15.7933 46.7072 15.9133 46.6672 16.06C46.6272 16.1933 46.5872 16.2933 46.5472 16.36L47.1872 15.44H40.5872V16.8H48.4472C48.4472 16.7733 48.4472 16.7133 48.4472 16.62C48.4605 16.5133 48.4672 16.4133 48.4672 16.32C48.4672 15.3467 48.2939 14.5067 47.9472 13.8C47.6005 13.0933 47.1005 12.5533 46.4472 12.18C45.8072 11.7933 45.0339 11.6 44.1272 11.6C43.2205 11.6 42.4205 11.8 41.7272 12.2C41.0472 12.6 40.5139 13.16 40.1272 13.88C39.7539 14.6 39.5672 15.44 39.5672 16.4C39.5672 17.3467 39.7472 18.18 40.1072 18.9C40.4805 19.62 40.9939 20.1867 41.6472 20.6C42.3139 21 43.0739 21.2 43.9272 21.2ZM52.2602 11.8H50.6602V21H52.2602V11.8ZM55.0402 13.56L55.9202 12.24C55.6802 11.9867 55.4135 11.82 55.1202 11.74C54.8402 11.6467 54.5335 11.6 54.2002 11.6C53.7735 11.6 53.3535 11.7667 52.9402 12.1C52.5268 12.4333 52.1868 12.8867 51.9202 13.46C51.6668 14.02 51.5402 14.6667 51.5402 15.4H52.2602C52.2602 14.96 52.3002 14.5667 52.3802 14.22C52.4735 13.8733 52.6335 13.6 52.8602 13.4C53.0868 13.2 53.4002 13.1 53.8002 13.1C54.0668 13.1 54.2868 13.14 54.4602 13.22C54.6335 13.2867 54.8268 13.4 55.0402 13.56ZM58.2356 18.16C58.2356 17.8267 58.3156 17.54 58.4756 17.3C58.6356 17.06 58.8756 16.8733 59.1956 16.74C59.529 16.6067 59.9556 16.54 60.4756 16.54C61.0356 16.54 61.5623 16.6133 62.0556 16.76C62.549 16.8933 63.029 17.12 63.4956 17.44V16.5C63.4023 16.38 63.2223 16.2267 62.9556 16.04C62.689 15.84 62.329 15.6667 61.8756 15.52C61.4356 15.36 60.8823 15.28 60.2156 15.28C59.0823 15.28 58.1956 15.5533 57.5556 16.1C56.929 16.6333 56.6156 17.3467 56.6156 18.24C56.6156 18.8667 56.7623 19.4 57.0556 19.84C57.349 20.28 57.7356 20.62 58.2156 20.86C58.709 21.0867 59.2356 21.2 59.7956 21.2C60.3023 21.2 60.809 21.1067 61.3156 20.92C61.8356 20.7333 62.269 20.4467 62.6156 20.06C62.9756 19.6733 63.1556 19.1867 63.1556 18.6L62.8356 17.4C62.8356 17.88 62.7156 18.3067 62.4756 18.68C62.249 19.04 61.9356 19.32 61.5356 19.52C61.149 19.72 60.709 19.82 60.2156 19.82C59.829 19.82 59.4823 19.76 59.1756 19.64C58.8823 19.5067 58.649 19.3133 58.4756 19.06C58.3156 18.8067 58.2356 18.5067 58.2356 18.16ZM57.9956 13.92C58.1423 13.8133 58.3423 13.6867 58.5956 13.54C58.849 13.3933 59.1556 13.2667 59.5156 13.16C59.889 13.0533 60.3023 13 60.7556 13C61.0356 13 61.3023 13.0267 61.5556 13.08C61.809 13.1333 62.029 13.22 62.2156 13.34C62.4156 13.46 62.569 13.6267 62.6756 13.84C62.7823 14.04 62.8356 14.3 62.8356 14.62V21H64.4356V14.4C64.4356 13.8 64.2823 13.2933 63.9756 12.88C63.6823 12.4667 63.2623 12.1533 62.7156 11.94C62.1823 11.7133 61.5556 11.6 60.8356 11.6C59.9823 11.6 59.249 11.7267 58.6356 11.98C58.0356 12.2333 57.5623 12.4867 57.2156 12.74L57.9956 13.92Z" fill="white"/>
</svg>
